
<?xml version="1.0" standalone="no"?>
<!DOCTYPE svg PUBLIC "-//W3C//DTD SVG 1.1//EN" "http://www.w3.org/Graphics/SVG/1.1/DTD/svg11.dtd" >
<svg xmlns="http://www.w3.org/2000/svg">
<metadata>
This is a custom SVG webfont generated by Font Squirrel.
Copyright   : Copyright c 2006 by Georg Seifert All rights reserved
Designer    : Georg Seifert
Foundry URL : wwwfontsinfo
</metadata>
<defs>
<font id="GraublauWebRegular" horiz-adv-x="1064" >
<font-face units-per-em="2048" ascent="1638" descent="-410" />
<missing-glyph horiz-adv-x="483" />
<glyph unicode=" "  horiz-adv-x="483" />
<glyph unicode="&#x09;" horiz-adv-x="483" />
<glyph unicode="&#xa0;" horiz-adv-x="483" />
<glyph unicode="!" horiz-adv-x="532" d="M227 92q0 51 35 86t84 35q47 0 81 -35t34 -86t-34 -86t-81 -35q-51 0 -85 35t-34 86zM227 1513h191l-15 -1062h-161z" />
<glyph unicode="&#x22;" horiz-adv-x="710" d="M94 1536v209h185v-207l-27 -340h-133zM436 1536v209h180v-207l-24 -340h-135z" />
<glyph unicode="#" horiz-adv-x="1179" d="M98 313v146h203v422h-203v143h205v498h164v-498h248v498h168v-498h198v-143h-198v-422h196v-146h-196v-512h-166v512h-250v-512h-164v512h-205zM467 459h248v422h-248v-422z" />
<glyph unicode="$" horiz-adv-x="962" d="M68 66l49 163q143 -86 274 -104l33 604q-74 47 -118 81t-96 88t-76.5 124t-24.5 154q0 166 100 258t256 104l12 223h135l-12 -229q90 -10 221 -62l-41 -147q-104 49 -188 63l-29 -532q76 -49 121 -83t100.5 -92t82 -134t26.5 -170q0 -188 -107.5 -284.5t-269.5 -113.5 l-14 -256h-131l12 256q-168 15 -315 89zM289 1186q0 -139 145 -246l23 446q-168 -30 -168 -200zM524 129q84 20 135.5 81.5t51.5 162.5q0 147 -160 270z" />
<glyph unicode="%" horiz-adv-x="1263" d="M78 1126q0 113 66.5 205t197.5 92q123 0 191.5 -78.5t68.5 -218.5q0 -119 -71.5 -210t-194.5 -91q-121 0 -189.5 88t-68.5 213zM121 217l926 1098l98 -107l-926 -1095zM219 1126q0 -74 31 -124t90 -50q61 0 92 51.5t31 122.5q0 76 -35 123t-88 47q-61 0 -91 -52t-30 -118 zM657 272q0 113 67 205t198 92q125 0 192.5 -77.5t67.5 -219.5q0 -119 -69 -210t-193 -91q-121 0 -192 88t-71 213zM799 272q0 -74 30.5 -123t90.5 -49q61 0 91.5 51.5t30.5 120.5q0 78 -33.5 124t-88.5 46q-61 0 -91 -51t-30 -119z" />
<glyph unicode="&#x26;" horiz-adv-x="1204" d="M129 293q0 233 236 446q-86 90 -127 172t-41 187q0 154 94 244t264 90q158 0 252 -76t94 -201q0 -84 -47 -165t-97 -130t-145 -127q330 -324 547 -616l-96 -127l-160 198q-96 -106 -194.5 -163.5t-233.5 -57.5q-170 0 -258 87t-88 239zM315 313q0 -100 47.5 -153.5 t133.5 -53.5q147 0 307 195q-86 94 -322 320q-166 -156 -166 -308zM377 1090q0 -106 121 -240q76 61 112.5 96t71.5 89.5t35 103.5q0 78 -55.5 115.5t-118.5 37.5h-5q-74 0 -117 -57q-44 -59 -44 -145z" />
<glyph unicode="'" horiz-adv-x="372" d="M94 1536v209h185v-207l-27 -340h-133z" />
<glyph unicode="(" horiz-adv-x="559" d="M121 682q0 193 27.5 357.5t83 304t102.5 227.5t123 209l118 -84q-55 -98 -93 -176t-88 -211t-76.5 -292t-26.5 -331q0 -565 287 -1026l-123 -80q-334 465 -334 1102z" />
<glyph unicode=")" horiz-adv-x="550" d="M-18 1700l129 80q152 -254 235.5 -502t83.5 -596q0 -184 -24.5 -343t-77 -297t-98.5 -233.5t-124 -228.5l-122 82q137 254 205.5 476t68.5 542q0 217 -44 414.5t-91 306.5t-141 299z" />
<glyph unicode="*" horiz-adv-x="999" d="M127 682l53 168l291 -139l-35 391h185l-29 -393l291 149l55 -168l-324 -102l224 -305l-142 -105l-168 328l-157 -330l-142 103l215 309z" />
<glyph unicode="+" horiz-adv-x="999" d="M98 510v147h322v412h160v-412h319v-147h-319v-434h-160v434h-322z" />
<glyph unicode="," horiz-adv-x="454" d="M88 -244q100 119 100 224q0 39 -26.5 80.5t-26.5 82.5t27.5 69t73.5 28q61 0 97 -55.5t36 -143.5q0 -184 -174 -375z" />
<glyph unicode="-" horiz-adv-x="755" d="M104 596v145h541v-145h-541z" />
<glyph unicode="." horiz-adv-x="458" d="M127 92q0 51 35 86t84 35q47 0 80.5 -35t33.5 -86t-33.5 -86t-80.5 -35q-51 0 -85 35t-34 86z" />
<glyph unicode="/" horiz-adv-x="686" d="M39 -180l498 1855l157 -49l-499 -1855z" />
<glyph unicode="0" horiz-adv-x="1085" d="M92 664q0 135 23.5 254.5t75 226t145.5 169t221 62.5q102 0 181 -42t126 -109.5t77 -160.5t41 -185.5t11 -194.5q0 -137 -22.5 -256t-72.5 -224.5t-143.5 -167t-219.5 -61.5q-129 0 -220.5 62.5t-137.5 169t-65.5 218.5t-19.5 239zM272 676q0 -555 271 -555q76 0 131 46 t86 127t44 174t13 202q0 111 -13 205t-43 178t-85 132t-131 48q-96 0 -161 -85t-88.5 -203.5t-23.5 -268.5z" />
<glyph unicode="1" horiz-adv-x="661" d="M25 1130l337 232h140v-1362h-176v1147l-242 -139z" />
<glyph unicode="2" horiz-adv-x="864" d="M55 0v113q223 262 367.5 491.5t144.5 411.5q0 106 -53 162.5t-152 56.5q-129 0 -258 -70l-43 133q164 82 326 82q180 0 269 -93t89 -253q0 -109 -39.5 -228.5t-106.5 -230t-132 -201.5l-137 -184q-25 -29 -35 -43h487v-147h-727z" />
<glyph unicode="3" horiz-adv-x="839" d="M47 1323q145 51 283 51q168 0 268 -83t100 -242q0 -229 -196 -338q123 -27 188.5 -131.5t65.5 -249.5q0 -248 -165 -388.5t-425 -140.5q-68 0 -111 9v147q55 -6 121 -6q166 0 279.5 102.5t113.5 276.5q0 135 -79 212q-66 65 -203 64q-26 0 -54 -2l-81 -6l-7 135l82 6 q131 12 210 88t79 197q0 102 -57.5 153.5t-151.5 51.5q-111 0 -221 -45z" />
<glyph unicode="4" horiz-adv-x="872" d="M20 440l353 987h168l-330 -960h336l24 463h136v-463h145v-143h-145v-324h-164v324h-486z" />
<glyph unicode="5" horiz-adv-x="843" d="M92 -33q39 -8 92 -8q186 0 298 110.5t112 307.5q0 301 -279 301q-98 0 -190 -25l35 699h579v-135h-430l-20 -410q59 6 96 6q176 0 283.5 -106.5t107.5 -329.5q0 -274 -158.5 -419.5t-429.5 -145.5q-61 0 -96 6v149z" />
<glyph unicode="6" horiz-adv-x="1046" d="M115 614q0 920 626 920q72 0 109 -6l4 -150q-50 7 -96 7q-181 0 -288 -104q-134 -130 -167 -437q119 78 258 78q184 0 282.5 -122t98.5 -337q0 -217 -111.5 -354.5t-302.5 -137.5q-84 0 -151.5 29t-111.5 80t-74.5 112.5t-47 138.5t-22.5 144t-6 139zM293 616 q0 -500 239 -499q111 0 168.5 96t57.5 244q0 328 -234 327q-96 0 -231 -84v-84z" />
<glyph unicode="7" horiz-adv-x="735" d="M-6 1206v146h700l17 -103l-453 -1411h-184l440 1368h-520z" />
<glyph unicode="8" horiz-adv-x="987" d="M86 358q0 240 254 441q-213 164 -213 372q0 168 108.5 268.5t262.5 100.5q152 0 259 -95t107 -255q0 -119 -65.5 -222.5t-157.5 -174.5q123 -86 191.5 -182.5t68.5 -245.5q0 -188 -118.5 -291t-288.5 -103t-289 103.5t-119 283.5zM260 375q0 -113 67.5 -187.5 t166.5 -74.5q96 0 165.5 68.5t69.5 176.5q0 111 -68.5 187t-203.5 168q-197 -168 -197 -338zM299 1182q0 -100 56.5 -169t162.5 -139q174 137 174 302q0 92 -59.5 159.5t-140.5 67.5q-80 0 -136.5 -62.5t-56.5 -158.5z" />
<glyph unicode="9" horiz-adv-x="1046" d="M96 885q0 217 111.5 354t302.5 137q84 0 151.5 -28.5t111.5 -79.5t75 -112.5t47 -138.5t22.5 -144.5t6.5 -139.5q0 -920 -627 -919q-72 0 -109 6l-4 149q50 -7 95 -6q180 0 287 104q134 130 167 435q-117 -76 -256 -76q-184 0 -282.5 122t-98.5 337zM281 891 q0 -328 233 -328q98 0 229 84q2 27 2 84q0 500 -239 500q-111 0 -168 -96.5t-57 -243.5z" />
<glyph unicode=":" horiz-adv-x="522" d="M166 92q0 51 35 86t84 35q47 0 80.5 -35t33.5 -86t-33.5 -86t-80.5 -35q-51 0 -85 35t-34 86zM166 1012q0 51 35 86t84 35q47 0 80.5 -35t33.5 -86t-33.5 -86t-80.5 -35q-51 0 -85 35t-34 86z" />
<glyph unicode=";" horiz-adv-x="522" d="M141 -244q100 119 101 224q0 39 -27 80.5t-27 82.5t28 69t73 28q61 0 97 -55.5t36 -143.5q0 -184 -174 -375zM166 1012q0 51 35 86t84 35q47 0 80.5 -35t33.5 -86t-33.5 -86t-80.5 -35q-51 0 -85 35t-34 86z" />
<glyph unicode="&#x3c;" horiz-adv-x="905" d="M117 586l567 583l96 -110l-446 -473l444 -473l-92 -115z" />
<glyph unicode="=" horiz-adv-x="999" d="M98 313v148h801v-148h-801zM98 709v147h801v-147h-801z" />
<glyph unicode="&#x3e;" horiz-adv-x="999" d="M168 1061l98 108l568 -583l-574 -588l-88 115l438 473z" />
<glyph unicode="?" horiz-adv-x="804" d="M106 1405q158 104 318 104t233.5 -86t73.5 -215q0 -94 -40 -180t-88 -142.5t-88 -144.5t-40 -188v-111h-174v121q0 98 25.5 178t62.5 134.5t74 102.5t62.5 103.5t25.5 116.5q0 82 -44 125t-118 43q-100 0 -223 -86zM274 92q0 51 34 86t83 35t82 -35t33 -86t-33 -86 t-82 -35t-83 35t-34 86z" />
<glyph unicode="@" horiz-adv-x="1757" d="M125 489q0 438 222 702.5t568 264.5q315 0 515 -225t200 -625q0 -115 -18.5 -219t-58.5 -199.5t-113.5 -153t-173.5 -57.5q-90 0 -133 45.5t-58 129.5q-41 -78 -110.5 -126.5t-155.5 -48.5q-102 0 -172 74t-98.5 177.5t-28.5 222.5q0 258 123 434t307 176q123 0 260 -88 v-645q0 -219 100 -219q82 0 124 135t42 338q0 334 -139 536.5t-399 202.5q-276 0 -458.5 -217t-182.5 -608q0 -354 157.5 -577.5t454.5 -223.5q184 0 344 69l41 -133q-190 -70 -395 -69q-365 0 -564.5 255.5t-199.5 671.5zM676 473q0 -154 48 -257t132 -103q59 0 112.5 55 t71.5 135v598q-49 29 -102 29q-123 0 -192.5 -133.5t-69.5 -323.5z" />
<glyph unicode="A" d="M-18 0l450 1513h182l469 -1513h-194l-141 461h-453l-135 -461h-178zM332 602h377l-189 729z" />
<glyph unicode="B" horiz-adv-x="1071" d="M190 0v1513h330q129 0 220 -31.5t137.5 -89t67 -120t20.5 -137.5q0 -223 -185 -322q119 -51 178.5 -152.5t59.5 -230.5q0 -236 -130 -333t-372 -97h-326zM365 860h118q156 0 225.5 72t69.5 192q0 109 -61.5 177.5t-202.5 68.5h-149v-510zM365 143h167q145 0 222 66.5 t77 222.5q0 158 -95 225.5t-232 67.5h-139v-582z" />
<glyph unicode="C" horiz-adv-x="948" d="M86 745q0 795 580 795q129 0 266 -49l-31 -148q-98 49 -235 50q-395 0 -396 -627q0 -643 387 -643q125 0 254 59l23 -149q-137 -57 -281 -58q-567 0 -567 770z" />
<glyph unicode="D" horiz-adv-x="1245" d="M188 0v1513h371q139 0 247.5 -48t173 -121.5t106.5 -176t56.5 -199t14.5 -200.5q0 -109 -14.5 -209t-56.5 -204.5t-106.5 -180.5t-174 -125t-252.5 -49h-365zM362 145h205q121 0 206 56.5t127 153t59.5 194.5t17.5 211q0 111 -18.5 207t-63.5 192t-136 152.5t-220 56.5 h-177v-1223z" />
<glyph unicode="E" horiz-adv-x="1019" d="M188 0v1513h734v-145h-560v-508h504v-143h-504v-572h596v-145h-770z" />
<glyph unicode="F" horiz-adv-x="888" d="M188 0v1513h709v-145h-535v-557h469v-143h-469v-668h-174z" />
<glyph unicode="G" horiz-adv-x="1226" d="M102 727q0 156 34 295t102.5 258t190.5 189.5t284 70.5q178 0 379 -100l-54 -144q-174 96 -325 97q-119 0 -206 -56.5t-133 -154t-66.5 -206t-20.5 -235.5q0 -279 101 -449.5t298 -170.5q127 0 248 65v500h166v-584q-205 -129 -426 -129q-193 0 -326 107.5t-189.5 272.5 t-56.5 374z" />
<glyph unicode="H" horiz-adv-x="1323" d="M190 0v1513h177v-645h591v645h177v-1513h-177v723h-591v-723h-177z" />
<glyph unicode="I" horiz-adv-x="552" d="M190 0v1513h172v-1513h-172z" />
<glyph unicode="J" horiz-adv-x="657" d="M-8 92q70 23 114 44.5t88 58t66.5 88t36.5 128t14 183.5v919h174v-925q0 -102 -11 -184t-30.5 -141.5t-53.5 -106.5t-67.5 -78t-88 -57.5t-100.5 -43t-116 -36.5z" />
<glyph unicode="K" horiz-adv-x="1105" d="M188 0v1513h177v-753l491 753h227l-458 -636l510 -877h-226l-393 737l-151 -223v-514h-177z" />
<glyph unicode="L" horiz-adv-x="937" d="M188 0v1513h174v-1361h566v-152h-740z" />
<glyph unicode="M" horiz-adv-x="1542" d="M125 0l86 1513h170l389 -1196l397 1196h164l88 -1513h-178l-57 1157l-371 -1157h-100l-373 1157l-59 -1157h-156z" />
<glyph unicode="N" horiz-adv-x="1363" d="M188 0v1513h136l686 -1142v1142h166v-1513h-129l-691 1159v-1159h-168z" />
<glyph unicode="O" horiz-adv-x="1284" d="M90 727q0 147 28.5 282.5t89 259.5t175.5 197.5t270 73.5q150 0 259.5 -66.5t168 -180t86 -239.5t27.5 -268q0 -160 -26.5 -295t-88 -256.5t-176.5 -191.5t-274 -70q-125 0 -222.5 46.5t-155.5 120t-96 176t-51.5 201.5t-13.5 210zM270 735q0 -121 17.5 -223t56.5 -194.5 t112.5 -145.5t176.5 -53q104 0 181 55t118 151.5t60.5 208t19.5 244.5q0 115 -16.5 215.5t-54.5 195.5t-112.5 150.5t-181.5 55.5q-109 0 -187.5 -61.5t-117.5 -165t-55.5 -209t-16.5 -224.5z" />
<glyph unicode="P" horiz-adv-x="1048" d="M186 0v1513h324q231 0 356 -123.5t125 -345.5q0 -217 -121.5 -352t-341.5 -135q-109 0 -166 18v-575h-176zM362 719q63 -18 146 -19q295 0 295 330q0 338 -311 338h-130v-649z" />
<glyph unicode="Q" horiz-adv-x="1284" d="M90 727q0 147 28.5 282.5t89 259.5t175.5 197.5t270 73.5q150 0 259.5 -66.5t168 -180t86 -239.5t27.5 -268q0 -272 -81 -481t-265 -289q123 -43 309 -114l281 -107q94 -35 223 -63.5t240 -28.5q104 0 260 21l-11 -138q-141 -18 -264 -18q-182 0 -366.5 51t-498.5 180 t-454 178q-137 12 -235.5 84t-148.5 184.5t-71.5 229.5t-21.5 252zM270 735q0 -121 17.5 -223t56.5 -194.5t112.5 -145.5t176.5 -53q104 0 181 55t118 151.5t60.5 208t19.5 244.5q0 115 -16.5 215.5t-54.5 195.5t-112.5 150.5t-181.5 55.5q-109 0 -187.5 -61.5t-117.5 -165 t-55.5 -209t-16.5 -224.5z" />
<glyph unicode="R" horiz-adv-x="1085" d="M188 0v1513h301q248 0 370 -107.5t122 -305.5q0 -303 -262 -418l334 -682h-217l-281 637q-83 -11 -165 -11l-28 1v-627h-174zM362 770h29q173 0 286 70q122 76 122 258q0 270 -298 270h-14l-125 -2v-596z" />
<glyph unicode="S" horiz-adv-x="921" d="M47 66l49 163q184 -109 336 -108q111 0 184.5 65.5t73.5 186.5q0 86 -45 155.5t-112 113.5l-144 97q-78 53 -144.5 104.5t-111.5 137.5t-45 195q0 178 115.5 271t285.5 93q135 0 312 -70l-41 -147q-145 70 -266 70q-96 0 -161 -50.5t-65 -156.5q0 -80 45 -146.5 t112 -107.5t145.5 -94.5t145 -107.5t111.5 -146t45 -209q0 -209 -131 -305.5t-313 -96.5q-197 1 -381 93z" />
<glyph unicode="T" horiz-adv-x="921" d="M-37 1366v147h995v-147h-413v-1366h-174v1366h-408z" />
<glyph unicode="U" horiz-adv-x="1286" d="M178 485v1028h176v-991q0 -188 65.5 -290.5t225.5 -102.5q289 0 289 397v987h174v-1024q0 -104 -25.5 -194t-80 -164t-148.5 -116t-221 -42q-242 0 -348.5 143.5t-106.5 368.5z" />
<glyph unicode="V" horiz-adv-x="1062" d="M-20 1513h192l365 -1206l362 1206h184l-497 -1513h-107z" />
<glyph unicode="W" horiz-adv-x="1562" d="M33 1513h186l174 -1177l326 1177h139l326 -1177l176 1177h168l-256 -1513h-137l-355 1217l-356 -1217h-137z" />
<glyph unicode="X" horiz-adv-x="1005" d="M-12 0l399 788l-373 725h211l289 -585l279 585h198l-379 -722l414 -791h-213l-317 641l-314 -641h-194z" />
<glyph unicode="Y" horiz-adv-x="974" d="M-33 1513h199l326 -843l331 843h183l-431 -1017v-496h-174v492z" />
<glyph unicode="Z" horiz-adv-x="907" d="M0 123l678 1239h-623v151h824l22 -112l-678 -1249h684v-152h-884z" />
<glyph unicode="[" horiz-adv-x="612" d="M162 -270v2052h403v-135h-252v-1782h252v-135h-403z" />
<glyph unicode="\" horiz-adv-x="569" d="M-68 1632l160 51l500 -1863l-162 -49z" />
<glyph unicode="]" horiz-adv-x="610" d="M47 -135h250v1782h-250v135h402v-2052h-402v135z" />
<glyph unicode="^" horiz-adv-x="972" d="M0 631l403 928h160l404 -928h-193l-293 733l-288 -733h-193z" />
<glyph unicode="_" horiz-adv-x="878" d="M14 -27h846v-133h-846v133z" />
<glyph unicode="`" horiz-adv-x="249" d="M-72 1540l156 84l192 -319l-114 -56z" />
<glyph unicode="a" horiz-adv-x="905" d="M84 266q0 174 135 248t373 80v209q0 106 -38 149t-112 43q-106 0 -270 -77l-37 133q209 80 332 79q160 0 228.5 -82.5t68.5 -240.5v-496q0 -119 18 -311h-143l-18 106q-2 -2 -27 -19l-32 -22q-7 -5 -31.5 -20.5t-36.5 -21.5l-36 -18q-24 -11 -41.5 -15t-40 -8.5 t-42.5 -4.5q-121 0 -185.5 82t-64.5 207zM246 287q0 -82 39 -131.5t106 -49.5q66 0 201 103v276q-68 -2 -120 -9t-108.5 -26.5t-87 -60.5t-30.5 -102z" />
<glyph unicode="b" horiz-adv-x="1017" d="M154 86v1577h174v-590q113 61 221 62q178 0 278.5 -157t100.5 -403q0 -156 -39 -285.5t-139.5 -224t-249.5 -94.5q-162 0 -346 115zM328 174q82 -57 176 -57q121 0 181 129t60 317q0 184 -58 305t-171 121q-106 0 -188 -65v-750z" />
<glyph unicode="c" horiz-adv-x="784" d="M86 549q0 283 113.5 429t328.5 146q123 0 226 -55l-43 -145q-96 61 -185 61q-260 0 -260 -418q0 -213 68.5 -329.5t191.5 -116.5q94 0 191 63l41 -137q-117 -68 -252 -67q-203 0 -311.5 148.5t-108.5 420.5z" />
<glyph unicode="d" horiz-adv-x="1015" d="M88 524q0 250 109.5 430.5t324.5 180.5q76 0 168 -35v563h176v-1630q-203 -61 -334 -62q-231 0 -337.5 156.5t-106.5 396.5zM272 543q0 -188 64.5 -308t208.5 -120q80 0 145 35v796q-68 43 -160 43q-123 0 -190.5 -124.5t-67.5 -321.5z" />
<glyph unicode="e" horiz-adv-x="923" d="M88 539q0 262 100.5 426.5t298.5 164.5q180 0 266.5 -131t86.5 -333q0 -53 -11 -115h-583q2 -209 71.5 -323.5t200.5 -114.5q117 0 256 94l43 -135q-156 -98 -313 -99q-119 0 -205 49.5t-129 134.5t-62.5 178t-19.5 204zM250 666h426q0 338 -195 338q-94 0 -154.5 -88 t-76.5 -250z" />
<glyph unicode="f" horiz-adv-x="559" d="M45 973v131h127v178q0 412 328 412q113 0 231 -45l-37 -131q-90 39 -176 38q-98 0 -135 -68.5t-37 -205.5v-178h240v-131h-240v-973h-174v973h-127z" />
<glyph unicode="g" horiz-adv-x="884" d="M57 -285q0 72 30 144.5t58.5 112.5t79.5 102q-49 66 -49 168q0 94 64 188q-129 96 -129 311q0 182 93 288t240 106q76 0 150 -37q76 115 133 178t121 80l55 -135q-123 -31 -215 -195q94 -111 94 -287t-94 -274t-242 -98q-49 0 -84 8q-29 -51 -28.5 -110.5t40.5 -100.5 t99 -61.5t129 -48t129.5 -58.5t99 -96.5t39.5 -157.5q0 -94 -37.5 -162.5t-102 -103.5t-133.5 -50.5t-146 -15.5q-178 0 -286 77.5t-108 227.5zM205 -266q0 -98 66.5 -148.5t179.5 -50.5q106 0 176.5 45t70.5 146q0 68 -40 112.5t-88 63t-126.5 46t-121.5 50.5 q-117 -151 -117 -264zM258 748q0 -117 51 -181.5t135 -64.5t135.5 61.5t51.5 184t-52.5 188t-136.5 65.5q-88 0 -136 -70t-48 -183z" />
<glyph unicode="h" horiz-adv-x="1052" d="M152 0v1665h174l-7 -684q182 150 343 149q248 0 247 -348v-782h-174v754q0 117 -32.5 170t-106.5 53q-113 0 -270 -143v-834h-174z" />
<glyph unicode="i" horiz-adv-x="495" d="M137 1460q0 51 32 85t79 34t79.5 -34t32.5 -85t-32.5 -84t-79.5 -33q-49 0 -80 33t-31 84zM160 0v1104h176v-1104h-176z" />
<glyph unicode="j" horiz-adv-x="491" d="M-90 -334q94 25 144 56.5t78 103.5t28 194v1084h174v-1073q0 -240 -80 -347.5t-311 -158.5zM135 1460q0 51 32 85t79 34t79.5 -34t32.5 -85t-32.5 -84t-79.5 -33q-49 0 -80 33t-31 84z" />
<glyph unicode="k" horiz-adv-x="913" d="M152 0v1663h172v-825l-5 -281l363 547h211l-354 -473l385 -631h-213l-275 492l-117 -156v-336h-167z" />
<glyph unicode="l" horiz-adv-x="477" d="M152 0v1663h176v-1663h-176z" />
<glyph unicode="m" horiz-adv-x="1636" d="M152 0v1104h161v-131q201 158 349 157q168 0 221 -161q209 162 362 161q248 0 248 -354v-776h-174v756q0 221 -139 221q-109 0 -273 -148q0 -8 1 -25.5t1 -27.5v-776h-174v754q0 117 -32.5 170t-106.5 53q-115 0 -270 -146v-831h-174z" />
<glyph unicode="n" horiz-adv-x="1052" d="M152 0v1104h155l6 -131q201 158 349 157q248 0 247 -348v-782h-174v754q0 117 -32.5 170t-106.5 53q-115 0 -270 -146v-831h-174z" />
<glyph unicode="o" horiz-adv-x="1011" d="M90 543q0 260 106.5 423.5t321.5 163.5q213 0 308.5 -157.5t95.5 -405.5q0 -266 -105.5 -430t-316.5 -164q-205 0 -307.5 158t-102.5 412zM268 549q0 -203 58.5 -318.5t177.5 -115.5q123 0 181 123.5t58 324.5q0 197 -56 312.5t-177 115.5t-181.5 -117.5t-60.5 -324.5z " />
<glyph unicode="p" horiz-adv-x="999" d="M147 1077q190 57 340 58q121 0 207 -49.5t132 -133.5t65.5 -176t19.5 -201q0 -78 -9 -151.5t-37.5 -158.5t-74 -147.5t-123 -104.5t-180.5 -42q-98 0 -165 41v-571h-175v1636zM322 174q66 -57 167 -57q125 0 182.5 124t57.5 322q0 428 -246 428q-94 0 -161 -37v-780z" />
<glyph unicode="q" horiz-adv-x="997" d="M88 532q0 121 23.5 223.5t74 190.5t142.5 138.5t217 50.5q170 0 307 -86v-1608h-174v577q-94 -47 -199 -47q-195 0 -293 154.5t-98 406.5zM272 537q0 -186 54.5 -303t175.5 -117q104 0 176 57v774q-55 41 -146 41q-139 0 -199.5 -127.5t-60.5 -324.5z" />
<glyph unicode="r" horiz-adv-x="739" d="M152 0v1104h172v-227q66 125 127 191.5t147 66.5q84 0 141 -50l-41 -151q-43 35 -106 35q-141 0 -268 -305v-664h-172z" />
<glyph unicode="s" horiz-adv-x="747" d="M55 41l43 143q141 -78 250 -78q82 0 127 44.5t45 121.5q0 74 -44 125.5t-108.5 85t-128 70.5t-107.5 105.5t-44 168.5q0 152 92 230t234 78q111 0 245 -50l-36 -139q-119 53 -195 53q-78 0 -122 -40.5t-44 -116.5q0 -61 32 -105.5t80 -69l104.5 -56t104.5 -65.5 t79.5 -100.5t31.5 -158.5q0 -164 -92 -240t-242 -76q-162 0 -305 70z" />
<glyph unicode="t" horiz-adv-x="622" d="M29 973v131h133v366l176 43v-409h262v-131h-262v-637q0 -213 141 -213q59 0 129 29l25 -146q-80 -33 -187 -33q-285 0 -284 338v662h-133z" />
<glyph unicode="u" horiz-adv-x="1056" d="M147 301v803h175v-768q0 -111 38.5 -160t114.5 -49q59 0 117.5 35t138.5 108v834h174v-1104h-155l-9 131q-70 -55 -110.5 -84t-98 -51.5t-116.5 -22.5q-269 0 -269 328z" />
<glyph unicode="v" horiz-adv-x="884" d="M0 1104h199l254 -866l245 866h187l-369 -1104h-141z" />
<glyph unicode="w" horiz-adv-x="1316" d="M23 1104h178l168 -825l239 825h119l244 -823l155 823h168l-254 -1104h-116l-260 856l-258 -856h-121z" />
<glyph unicode="x" horiz-adv-x="845" d="M2 0l305 557l-284 547h202l201 -430l213 430h190l-294 -543l309 -561h-207l-219 444l-228 -444h-188z" />
<glyph unicode="y" horiz-adv-x="856" d="M-10 1104h188l275 -879l225 879h182l-350 -1198q-49 -143 -108.5 -232.5t-127 -137.5t-182.5 -97l-69 127q133 61 206.5 139t114.5 223l25 99z" />
<glyph unicode="z" horiz-adv-x="804" d="M51 109l500 860h-471v135h663l13 -109l-504 -858h512v-137h-705z" />
<glyph unicode="{" horiz-adv-x="591" d="M49 727v102q182 25 182 295v344q0 160 78 236t180 84l19 -117q-129 -6 -129 -227v-322q0 -256 -150 -340q66 -31 108 -126t42 -220v-348q0 -106 30.5 -159.5t106.5 -84.5l-27 -116q-66 23 -104.5 43t-78.5 60t-57.5 107.5t-17.5 167.5v281q0 168 -44 247t-138 93z" />
<glyph unicode="|" horiz-adv-x="520" d="M178 -219v1882h166v-1882h-166z" />
<glyph unicode="}" horiz-adv-x="591" d="M76 1673l30 117q66 -23 103 -42t77 -59t57 -108t17 -168v-280q0 -168 44.5 -248t136.5 -94v-103q-80 -12 -130.5 -85t-50.5 -210v-342q0 -160 -77.5 -236.5t-178.5 -82.5l-18 116q131 6 131 226v321q0 256 148 340q-66 33 -107 127t-41 221v347q0 106 -32.5 159 t-108.5 84z" />
<glyph unicode="~" horiz-adv-x="894" d="M53 641q119 104 238 104q82 0 178 -60t145 -60q76 0 179 82l51 -121q-111 -115 -244 -115q-72 0 -164 60.5t-160 60.5q-98 0 -178 -72z" />
<glyph unicode="&#xa1;" horiz-adv-x="446" d="M137 1007.5q0 51.5 35 86t84 34.5q47 0 81 -34.5t34 -86t-34 -86t-81 -34.5q-51 0 -85 34.5t-34 86zM145 -410l15 1063h164l16 -1063h-195z" />
<glyph unicode="&#xa2;" horiz-adv-x="839" d="M106 555q0 240 88.5 386t245.5 183v246h152v-237q92 -8 194 -62l-41 -149q-102 68 -202 67q-119 0 -185.5 -107.5t-66.5 -312.5q0 -209 67.5 -330.5t190.5 -121.5q102 0 203 65l39 -145q-100 -53 -199 -64v-247h-152v256q-162 33 -248 184t-86 389z" />
<glyph unicode="&#xa3;" horiz-adv-x="915" d="M82 111q96 76 127 169t31 261v209h-156v137h156v221q0 182 97 304t265 122q135 0 268 -57l-43 -138q-98 49 -202 50q-106 0 -161.5 -77t-55.5 -208v-217h231v-137h-231v-218q0 -160 -17.5 -249.5t-71.5 -141.5h545v-141h-768z" />
<glyph unicode="&#xa4;" horiz-adv-x="1036" d="M90 559v131h121v58q0 76 2 114h-123v135h137q39 248 160 395.5t336 147.5q123 0 250 -59l-47 -148q-100 59 -195 60q-260 0 -317 -396h391v-135h-404q-2 -33 -2 -102q0 -47 2 -70h404v-131h-395q25 -209 101.5 -325.5t209.5 -116.5q98 0 219 63l45 -143 q-154 -66 -278 -66q-217 0 -337 158t-149 430h-131z" />
<glyph unicode="&#xa5;" horiz-adv-x="1013" d="M39 1513h184l281 -763l282 763h189l-277 -632h220v-133h-277l-66 -150h343v-133h-330v-467h-176v467h-330v133h348l-63 150h-285v133h221l10 -13z" />
<glyph unicode="&#xa6;" horiz-adv-x="520" d="M178 -219v823h166v-823h-166zM178 895v770h166v-770h-166z" />
<glyph unicode="&#xa7;" horiz-adv-x="958" d="M109 692q0 174 184 293q-104 129 -105 262q0 131 90.5 208t249.5 77q139 0 256 -45l-45 -123q-72 33 -200 33q-88 0 -140.5 -38t-52.5 -107.5t54.5 -142.5t129.5 -137l153 -134q77 -70 131 -159t54 -183q0 -172 -186 -293q92 -117 92 -242q0 -137 -94 -208.5t-248 -71.5 q-172 0 -278 51l47 127q82 -45 217 -45q188 0 188 143q0 70 -51 140.5t-125 133.5l-146 130q-73 67 -124 153t-51 178zM274 698q0 -55 34 -112.5t64.5 -89t110.5 -101.5l105 -92q119 92 119 195q0 43 -17.5 84t-55.5 83t-71 72.5t-91 78.5t-89 77q-109 -99 -109 -195z" />
<glyph unicode="&#xa8;" horiz-adv-x="614" d="M-2 1434q0 51 30.5 81.5t80.5 30.5q43 0 72.5 -31.5t29.5 -80.5q0 -47 -29.5 -78t-72.5 -31q-49 0 -80 30t-31 79zM397 1433.5q0 49.5 29 81t74 31.5q47 0 78.5 -31.5t31.5 -81t-30.5 -79t-79.5 -29.5q-43 0 -73 29.5t-30 79z" />
<glyph unicode="&#xa9;" horiz-adv-x="2080" d="M139 614q0 297 110.5 542t318.5 390.5t472.5 145.5t472 -145.5t318.5 -390.5t111 -542q0 -299 -111 -543.5t-318.5 -390t-472 -145.5t-471.5 143.5t-318.5 388t-111.5 547.5zM293 612q0 -399 208 -666.5t537.5 -267.5t538.5 269.5t209 664.5q0 258 -92 470t-265.5 337 t-390.5 125t-389 -126t-264 -338t-92 -468zM545 629q0 281 143 443.5t348 162.5q170 0 334 -88l-49 -143q-86 47 -141.5 66.5t-120.5 19.5q-53 0 -108.5 -24t-109 -73t-86 -144t-32.5 -220q0 -135 35 -240.5t87 -161t104 -83t98 -27.5q80 0 139 18.5t145 63.5l49 -140 q-152 -88 -344 -88q-215 0 -353 174.5t-138 483.5z" />
<glyph unicode="&#xaa;" horiz-adv-x="665" d="M55 936q0 139 93.5 195.5t271.5 60.5v86q0 147 -105 147q-78 0 -198 -63l-31 117q156 63 258 63q117 0 169 -73.5t52 -184.5v-356q0 -51 10 -189h-126l-13 88q-4 -4 -32.5 -28.5t-39.5 -31.5l-35 -23q-24 -15 -43.5 -20t-41.5 -5q-90 0 -139.5 61.5t-49.5 155.5zM63 465 v137h521v-137h-521zM193 946q0 -109 77 -108q63 0 150 90v172q-227 -4 -227 -154z" />
<glyph unicode="&#xab;" horiz-adv-x="948" d="M90 557l287 463l125 -39l-217 -424l219 -428l-127 -33zM453 557l262 408l121 -39l-187 -367l189 -379l-125 -37z" />
<glyph unicode="&#xac;" horiz-adv-x="1087" d="M78 616v144h926v-551h-144l-2 407h-780z" />
<glyph unicode="&#xad;" horiz-adv-x="755" d="M106 596v145h541v-145h-541z" />
<glyph unicode="&#xae;" horiz-adv-x="2080" d="M139 614q0 297 110.5 542t318.5 390.5t472.5 145.5t472 -145.5t318.5 -390.5t111 -542q0 -299 -111 -543.5t-318.5 -390t-472 -145.5t-471.5 143.5t-318.5 388t-111.5 547.5zM293 612q0 -399 208 -666.5t537.5 -267.5t538.5 269.5t209 664.5q0 258 -92 470t-265.5 337 t-390.5 125t-389 -126t-264 -338t-92 -468zM721 -2v1216h256q219 0 312 -105t93 -243q0 -227 -204 -319l247 -549h-174l-209 510q-59 -10 -116 -10q-25 0 -49 2v-502h-156zM877 618h5q340 0 341 240q0 106 -61.5 166.5t-223.5 60.5h-61v-467z" />
<glyph unicode="&#xaf;" horiz-adv-x="571" d="M4 1294v123h559v-123h-559z" />
<glyph unicode="&#xb0;" horiz-adv-x="776" d="M96 1348q0 135 84 229t203 94q121 0 205 -94t84 -229q0 -137 -84 -231.5t-205 -94.5q-123 0 -205 93.5t-82 232.5zM225 1348q0 -88 46 -148.5t112 -60.5t113 60.5t47 148.5t-47 147t-113 59t-112 -60t-46 -146z" />
<glyph unicode="&#xb1;" horiz-adv-x="999" d="M98 0v147h801v-147h-801zM98 641v143h322v404h160v-404h319v-143h-319v-395h-160v395h-322z" />
<glyph unicode="&#xb2;" horiz-adv-x="583" d="M45 756l150 178q47 57 112.5 174t65.5 195q0 113 -103 112q-86 0 -178 -53l-35 115q121 63 236 63q113 0 172 -57.5t59 -167.5q0 -205 -291 -527h318v-112h-496z" />
<glyph unicode="&#xb3;" horiz-adv-x="524" d="M31 680l30 121q76 -29 134 -29q70 0 112.5 38t42.5 110q0 150 -174 149h-70l-2 102h46q68 0 117.5 37t49.5 107q0 47 -27.5 73.5t-74.5 26.5q-61 0 -133 -39l-39 109q109 51 203 51q102 0 165.5 -50t63.5 -147q0 -127 -108 -196q135 -51 135 -217q0 -133 -81 -202 t-222 -69q-84 0 -168 25z" />
<glyph unicode="&#xb4;" horiz-adv-x="249" d="M-35 1294l191 332l137 -78l-225 -305z" />
<glyph unicode="&#xb5;" d="M152 -559v1663h176v-799q39 -84 93 -136t114 -52q80 0 138 88t58 227v672h174v-770q0 -184 21 -334h-156q-6 59 -10 127q-82 -156 -213 -156q-129 0 -219 113v-643h-176z" />
<glyph unicode="&#x3bc;" d="M152 -559v1663h176v-799q39 -84 93 -136t114 -52q80 0 138 88t58 227v672h174v-770q0 -184 21 -334h-156q-6 59 -10 127q-82 -156 -213 -156q-129 0 -219 113v-643h-176z" />
<glyph unicode="&#xb6;" horiz-adv-x="1105" d="M27 1239q0 227 137 363.5t428 136.5h358v-1901h-168v1757h-176q-188 0 -296.5 -85t-108.5 -261q0 -92 39 -159.5t104.5 -102.5t134 -50t144.5 -15v-1084h-164v946q-211 27 -321.5 156t-110.5 299z" />
<glyph unicode="&#xb7;" horiz-adv-x="491" d="M143 710.5q0 51.5 35 86t84 34.5q47 0 81 -34.5t34 -86t-34 -86t-81 -34.5q-51 0 -85 34.5t-34 86z" />
<glyph unicode="&#xb8;" horiz-adv-x="505" d="M106 -508l25 94q66 -18 107 -18q131 0 131 102q0 53 -43 79t-133 32l26 223h105l-21 -145q190 -39 191 -197q0 -100 -71 -145t-175 -45q-70 0 -142 20z" />
<glyph unicode="&#xb9;" horiz-adv-x="507" d="M27 1360l254 172h116v-860h-145l2 690l-186 -107z" />
<glyph unicode="&#xba;" horiz-adv-x="763" d="M61 1133q0 43 8.5 91t30 106.5t55 103.5t91 75.5t131.5 30.5q94 0 159.5 -42t94 -110.5t39 -127t10.5 -119.5q0 -66 -14.5 -132.5t-46 -134t-98 -109.5t-157 -42t-154 41t-94 108.5t-43 131t-12.5 129.5zM86 465v137h602v-137h-602zM221 1137q0 -45 5 -88t19.5 -91.5 t46.5 -78t79 -29.5t78.5 29.5t47 78t21.5 91.5t6 88q0 41 -6 82t-20.5 88t-47 76.5t-77.5 29.5q-59 0 -96 -52t-46.5 -108.5t-9.5 -115.5z" />
<glyph unicode="&#xbb;" horiz-adv-x="950" d="M111 934l125 37l260 -414l-260 -407l-123 38l186 367zM446 133l220 424l-220 428l127 35l287 -463l-289 -461z" />
<glyph unicode="&#xbc;" horiz-adv-x="1273" d="M12 1360l254 172h117v-860h-145l2 690l-187 -107zM150 154l909 1353l106 -104l-905 -1350zM700 287l220 585h141l-211 -567h186l29 277h92v-277h94v-119h-94v-186h-141v186h-281z" />
<glyph unicode="&#xbd;" horiz-adv-x="1349" d="M12 1360l254 172h117v-860h-145l2 690l-187 -107zM133 154l909 1353l107 -104l-905 -1350zM819 82l149 176q50 61 114.5 176t64.5 193q0 113 -103 112q-86 0 -178 -53l-35 117q123 61 236 61q233 0 233 -225q0 -203 -290 -524h315v-115h-496z" />
<glyph unicode="&#xbe;" horiz-adv-x="1310" d="M31 680l30 121q76 -29 134 -29q70 0 112.5 38t42.5 110q0 150 -174 149h-70l-2 102h46q68 0 117.5 37t49.5 107q0 47 -27.5 73.5t-74.5 26.5q-61 0 -133 -39l-39 109q109 51 203 51q102 0 165.5 -50t63.5 -147q0 -127 -108 -196q135 -51 135 -217q0 -133 -81 -202 t-222 -69q-84 0 -168 25zM184 154l910 1353l106 -104l-905 -1350zM752 287l217 585h143l-211 -567h186l27 277h94v-277h95v-119h-95v-186h-141v186h-281z" />
<glyph unicode="&#xbf;" horiz-adv-x="804" d="M106 -104q0 94 40 180t88.5 142t88 144.5t39.5 188.5v111h175v-121q0 -98 -26 -178t-62.5 -134.5t-73.5 -102.5t-62.5 -103.5t-25.5 -116.5q0 -82 44 -125t118 -43q100 0 223 86l59 -125q-158 -104 -317.5 -104.5t-233.5 86t-74 215.5zM332 1012q0 51 32.5 86t82 35 t83 -35t33.5 -86t-33.5 -86t-83 -35t-82 35t-32.5 86z" />
<glyph unicode="&#xc0;" d="M-18 0l450 1513h182l469 -1513h-194l-141 461h-453l-135 -461h-178zM295 1939l156 84l192 -317l-115 -55zM332 602h377l-189 729z" />
<glyph unicode="&#xc1;" d="M-18 0l450 1513h182l469 -1513h-194l-141 461h-453l-135 -461h-178zM332 602h377l-189 729zM403 1696l189 329l139 -79l-225 -301z" />
<glyph unicode="&#xc2;" d="M-18 0l450 1513h182l469 -1513h-194l-141 461h-453l-135 -461h-178zM240 1712l280 258l287 -248l-82 -82l-203 164l-198 -164zM332 602h377l-189 729z" />
<glyph unicode="&#xc3;" d="M-18 0l450 1513h182l469 -1513h-194l-141 461h-453l-135 -461h-178zM231 1739q106 100 199 100q51 0 111.5 -29.5t97.5 -29.5q49 0 121 57l67 -80q-92 -102 -194 -102q-53 0 -113.5 30.5t-95.5 30.5q-49 0 -127 -61zM332 602h377l-189 729z" />
<glyph unicode="&#xc4;" d="M-18 0l450 1513h182l469 -1513h-194l-141 461h-453l-135 -461h-178zM201 1767.5q0 49.5 32.5 82t81.5 32.5q47 0 78 -32.5t31 -82t-32 -80t-77 -30.5q-51 0 -82.5 30.5t-31.5 80zM332 602h377l-189 729zM610 1767q0 49 32 82t77 33q51 0 85 -32.5t34 -82t-34 -80 t-85 -30.5q-43 0 -76 31.5t-33 78.5z" />
<glyph unicode="&#xc5;" d="M-18 0l428 1440q-96 66 -97 202q0 98 59.5 166t147.5 68q92 0 151.5 -68.5t59.5 -165.5q0 -133 -96 -198l448 -1444h-194l-141 461h-453l-135 -461h-178zM332 602h377l-189 729zM424 1642.5q0 -55.5 24.5 -92.5t71.5 -37t72.5 37t25.5 92.5t-25.5 93.5t-72.5 38 t-71.5 -38t-24.5 -93.5z" />
<glyph unicode="&#xc6;" horiz-adv-x="1484" d="M-59 0l704 1513h725v-145h-526l80 -498h426v-143h-408l94 -582h398v-145h-547l-70 473h-469l-201 -473h-206zM414 610h387l-107 733z" />
<glyph unicode="&#xc7;" horiz-adv-x="948" d="M86 745q0 795 580 795q129 0 266 -49l-31 -148q-98 49 -235 50q-395 0 -396 -627q0 -643 387 -643q125 0 254 59l23 -149q-137 -57 -281 -58q-25 0 -37 2l-16 -118q190 -39 191 -197q0 -100 -71 -145t-175 -45q-70 0 -142 20l25 94q63 -18 107 -18q131 0 131 102 q0 53 -43 79t-134 32l25 209q-428 85 -428 755z" />
<glyph unicode="&#xc8;" horiz-adv-x="1019" d="M188 0v1513h734v-145h-560v-508h504v-143h-504v-572h596v-145h-770zM328 1939l155 84l193 -317l-115 -55z" />
<glyph unicode="&#xc9;" horiz-adv-x="1019" d="M188 0v1513h734v-145h-560v-508h504v-143h-504v-572h596v-145h-770zM438 1696l189 329l139 -79l-225 -301z" />
<glyph unicode="&#xca;" horiz-adv-x="1019" d="M188 0v1513h734v-145h-560v-508h504v-143h-504v-572h596v-145h-770zM274 1712l281 258l287 -248l-82 -82l-203 164l-199 -164z" />
<glyph unicode="&#xcb;" horiz-adv-x="1019" d="M188 0v1513h734v-145h-560v-508h504v-143h-504v-572h596v-145h-770zM233 1767.5q0 49.5 33 82t82 32.5q47 0 78 -32.5t31 -82t-32 -80t-77 -30.5q-51 0 -83 30.5t-32 80zM643 1767q0 49 32 82t77 33q51 0 84.5 -32.5t33.5 -82t-33.5 -80t-84.5 -30.5q-43 0 -76 31.5 t-33 78.5z" />
<glyph unicode="&#xcc;" horiz-adv-x="552" d="M51 1939l156 84l192 -317l-114 -55zM190 0v1513h172v-1513h-172z" />
<glyph unicode="&#xcd;" horiz-adv-x="552" d="M162 1696l188 329l139 -79l-225 -301zM190 0v1513h172v-1513h-172z" />
<glyph unicode="&#xce;" horiz-adv-x="552" d="M-2 1712l281 258l286 -248l-82 -82l-202 164l-199 -164zM190 0v1513h172v-1513h-172z" />
<glyph unicode="&#xcf;" horiz-adv-x="552" d="M-43 1767.5q0 49.5 33 82t82 32.5q47 0 77.5 -32.5t30.5 -82t-31.5 -80t-76.5 -30.5q-51 0 -83 30.5t-32 80zM190 0v1513h172v-1513h-172zM367 1767q0 49 31.5 82t76.5 33q51 0 85 -32.5t34 -82t-34 -80t-85 -30.5q-43 0 -75.5 31.5t-32.5 78.5z" />
<glyph unicode="&#xd0;" horiz-adv-x="1247" d="M18 705v122h168v686h371q139 0 247.5 -48t173 -121.5t106.5 -176t56.5 -199t14.5 -200.5q0 -109 -14.5 -209t-56.5 -204.5t-106.5 -180.5t-174 -125t-252.5 -49h-365v705h-168zM360 145h205q121 0 206 56.5t127 153t59.5 194.5t17.5 211q0 111 -18.5 207t-63.5 192 t-136 152.5t-220 56.5h-177v-541h218v-122h-218v-560z" />
<glyph unicode="&#xd1;" horiz-adv-x="1363" d="M188 0v1513h136l686 -1142v1142h166v-1513h-129l-691 1159v-1159h-168zM403 1739q106 100 199 100q51 0 111.5 -29.5t97.5 -29.5q49 0 121 57l67 -80q-92 -102 -194 -102q-53 0 -113.5 30.5t-95.5 30.5q-49 0 -127 -61z" />
<glyph unicode="&#xd2;" horiz-adv-x="1284" d="M90 727q0 147 28.5 282.5t89 259.5t175.5 197.5t270 73.5q150 0 259.5 -66.5t168 -180t86 -239.5t27.5 -268q0 -160 -26.5 -295t-88 -256.5t-176.5 -191.5t-274 -70q-125 0 -222.5 46.5t-155.5 120t-96 176t-51.5 201.5t-13.5 210zM270 735q0 -121 17.5 -223t56.5 -194.5 t112.5 -145.5t176.5 -53q104 0 181 55t118 151.5t60.5 208t19.5 244.5q0 115 -16.5 215.5t-54.5 195.5t-112.5 150.5t-181.5 55.5q-109 0 -187.5 -61.5t-117.5 -165t-55.5 -209t-16.5 -224.5zM422 1939l156 84l192 -317l-115 -55z" />
<glyph unicode="&#xd3;" horiz-adv-x="1284" d="M90 727q0 147 28.5 282.5t89 259.5t175.5 197.5t270 73.5q150 0 259.5 -66.5t168 -180t86 -239.5t27.5 -268q0 -160 -26.5 -295t-88 -256.5t-176.5 -191.5t-274 -70q-125 0 -222.5 46.5t-155.5 120t-96 176t-51.5 201.5t-13.5 210zM270 735q0 -121 17.5 -223t56.5 -194.5 t112.5 -145.5t176.5 -53q104 0 181 55t118 151.5t60.5 208t19.5 244.5q0 115 -16.5 215.5t-54.5 195.5t-112.5 150.5t-181.5 55.5q-109 0 -187.5 -61.5t-117.5 -165t-55.5 -209t-16.5 -224.5zM532 1696l189 329l139 -79l-225 -301z" />
<glyph unicode="&#xd4;" horiz-adv-x="1284" d="M90 727q0 147 28.5 282.5t89 259.5t175.5 197.5t270 73.5q150 0 259.5 -66.5t168 -180t86 -239.5t27.5 -268q0 -160 -26.5 -295t-88 -256.5t-176.5 -191.5t-274 -70q-125 0 -222.5 46.5t-155.5 120t-96 176t-51.5 201.5t-13.5 210zM270 735q0 -121 17.5 -223t56.5 -194.5 t112.5 -145.5t176.5 -53q104 0 181 55t118 151.5t60.5 208t19.5 244.5q0 115 -16.5 215.5t-54.5 195.5t-112.5 150.5t-181.5 55.5q-109 0 -187.5 -61.5t-117.5 -165t-55.5 -209t-16.5 -224.5zM369 1712l280 258l287 -248l-82 -82l-203 164l-198 -164z" />
<glyph unicode="&#xd5;" horiz-adv-x="1284" d="M90 727q0 147 28.5 282.5t89 259.5t175.5 197.5t270 73.5q150 0 259.5 -66.5t168 -180t86 -239.5t27.5 -268q0 -160 -26.5 -295t-88 -256.5t-176.5 -191.5t-274 -70q-125 0 -222.5 46.5t-155.5 120t-96 176t-51.5 201.5t-13.5 210zM270 735q0 -121 17.5 -223t56.5 -194.5 t112.5 -145.5t176.5 -53q104 0 181 55t118 151.5t60.5 208t19.5 244.5q0 115 -16.5 215.5t-54.5 195.5t-112.5 150.5t-181.5 55.5q-109 0 -187.5 -61.5t-117.5 -165t-55.5 -209t-16.5 -224.5zM358 1739q106 100 199 100q51 0 111.5 -29.5t97.5 -29.5q49 0 121 57l67 -80 q-92 -102 -194 -102q-53 0 -113.5 30.5t-95.5 30.5q-49 0 -127 -61z" />
<glyph unicode="&#xd6;" horiz-adv-x="1284" d="M90 727q0 147 28.5 282.5t89 259.5t175.5 197.5t270 73.5q150 0 259.5 -66.5t168 -180t86 -239.5t27.5 -268q0 -160 -26.5 -295t-88 -256.5t-176.5 -191.5t-274 -70q-125 0 -222.5 46.5t-155.5 120t-96 176t-51.5 201.5t-13.5 210zM270 735q0 -121 17.5 -223t56.5 -194.5 t112.5 -145.5t176.5 -53q104 0 181 55t118 151.5t60.5 208t19.5 244.5q0 115 -16.5 215.5t-54.5 195.5t-112.5 150.5t-181.5 55.5q-109 0 -187.5 -61.5t-117.5 -165t-55.5 -209t-16.5 -224.5zM328 1767.5q0 49.5 32.5 82t81.5 32.5q47 0 78 -32.5t31 -82t-32 -80t-77 -30.5 q-51 0 -82.5 30.5t-31.5 80zM737 1767q0 49 32 82t77 33q51 0 85 -32.5t34 -82t-34 -80t-85 -30.5q-43 0 -76 31.5t-33 78.5z" />
<glyph unicode="&#xd7;" horiz-adv-x="997" d="M125 930l104 110l271 -333l264 329l106 -110l-266 -324l268 -328l-106 -108l-266 328l-264 -326l-107 106l264 326z" />
<glyph unicode="&#xd8;" horiz-adv-x="1284" d="M23 74l149 192q-82 182 -82 461q0 147 28.5 282.5t89 259.5t175.5 197.5t270 73.5q244 0 385 -182l152 190l104 -112l-176 -222q76 -184 76 -428q0 -160 -26.5 -295t-88 -256.5t-176.5 -191.5t-274 -70q-236 0 -369 154l-129 -168zM270 735q0 -188 35 -313l625 790 q-92 182 -283 183q-109 0 -187.5 -61.5t-117.5 -165t-55.5 -209t-16.5 -224.5zM369 268q92 -150 264 -149q104 0 181 55t118 151.5t60.5 208t19.5 244.5q0 160 -27 277z" />
<glyph unicode="&#xd9;" horiz-adv-x="1286" d="M178 485v1028h176v-991q0 -188 65.5 -290.5t225.5 -102.5q289 0 289 397v987h174v-1024q0 -104 -25.5 -194t-80 -164t-148.5 -116t-221 -42q-242 0 -348.5 143.5t-106.5 368.5zM424 1939l156 84l192 -317l-115 -55z" />
<glyph unicode="&#xda;" horiz-adv-x="1286" d="M178 485v1028h176v-991q0 -188 65.5 -290.5t225.5 -102.5q289 0 289 397v987h174v-1024q0 -104 -25.5 -194t-80 -164t-148.5 -116t-221 -42q-242 0 -348.5 143.5t-106.5 368.5zM535 1696l188 329l139 -79l-225 -301z" />
<glyph unicode="&#xdb;" horiz-adv-x="1286" d="M178 485v1028h176v-991q0 -188 65.5 -290.5t225.5 -102.5q289 0 289 397v987h174v-1024q0 -104 -25.5 -194t-80 -164t-148.5 -116t-221 -42q-242 0 -348.5 143.5t-106.5 368.5zM371 1712l280 258l287 -248l-82 -82l-203 164l-198 -164z" />
<glyph unicode="&#xdc;" horiz-adv-x="1286" d="M178 485v1028h176v-991q0 -188 65.5 -290.5t225.5 -102.5q289 0 289 397v987h174v-1024q0 -104 -25.5 -194t-80 -164t-148.5 -116t-221 -42q-242 0 -348.5 143.5t-106.5 368.5zM330 1767.5q0 49.5 32.5 82t81.5 32.5q47 0 78 -32.5t31 -82t-32 -80t-77 -30.5 q-51 0 -82.5 30.5t-31.5 80zM739 1767q0 49 32 82t77 33q51 0 85 -32.5t34 -82t-34 -80t-85 -30.5q-43 0 -76 31.5t-33 78.5z" />
<glyph unicode="&#xdd;" horiz-adv-x="974" d="M-33 1513h199l326 -843l331 843h183l-431 -1017v-496h-174v492zM379 1696l188 329l140 -79l-226 -301z" />
<glyph unicode="&#xde;" horiz-adv-x="1058" d="M211 0v1513h174v-280h131q115 0 204 -34t140 -84t83 -116.5t43 -124t11 -114.5q0 -68 -12 -131.5t-44 -127t-82 -109.5t-132 -74.5t-186 -28.5q-92 0 -156 16v-305h-174zM385 451q82 -18 150 -19q274 0 274 328q0 39 -4 73.5t-23.5 84t-51.5 84t-93.5 60t-142.5 25.5 h-109v-636z" />
<glyph unicode="&#xdf;" horiz-adv-x="1009" d="M164 0v1198q0 219 103.5 351t295.5 132q164 0 256 -88t92 -223q0 -84 -30.5 -164t-66.5 -132t-66.5 -119.5t-30.5 -129.5q0 -57 26.5 -108t63.5 -94l75 -91q38 -47 64.5 -115.5t26.5 -150.5q0 -86 -30 -148.5t-78 -93t-96 -43t-97 -12.5q-115 0 -246 76l47 148 q123 -80 193 -80q63 0 97 40t34 111q0 70 -40 137.5t-89.5 116.5t-89 127t-39.5 166q0 80 30.5 159t66.5 131t66.5 120.5t30.5 130.5q0 80 -42 135t-128 55q-111 0 -168 -94t-57 -244v-1204h-174z" />
<glyph unicode="&#xe0;" horiz-adv-x="905" d="M84 266q0 174 135 248t373 80v209q0 106 -38 149t-112 43q-106 0 -270 -77l-37 133q209 80 332 79q160 0 228.5 -82.5t68.5 -240.5v-496q0 -119 18 -311h-143l-18 106q-2 -2 -27 -19l-32 -22q-7 -5 -31.5 -20.5t-36.5 -21.5l-36 -18q-24 -11 -41.5 -15t-40 -8.5 t-42.5 -4.5q-121 0 -185.5 82t-64.5 207zM225 1540l156 84l192 -319l-114 -56zM246 287q0 -82 39 -131.5t106 -49.5q66 0 201 103v276q-68 -2 -120 -9t-108.5 -26.5t-87 -60.5t-30.5 -102z" />
<glyph unicode="&#xe1;" horiz-adv-x="905" d="M84 266q0 174 135 248t373 80v209q0 106 -38 149t-112 43q-106 0 -270 -77l-37 133q209 80 332 79q160 0 228.5 -82.5t68.5 -240.5v-496q0 -119 18 -311h-143l-18 106q-2 -2 -27 -19l-32 -22q-7 -5 -31.5 -20.5t-36.5 -21.5l-36 -18q-24 -11 -41.5 -15t-40 -8.5 t-42.5 -4.5q-121 0 -185.5 82t-64.5 207zM246 287q0 -82 39 -131.5t106 -49.5q66 0 201 103v276q-68 -2 -120 -9t-108.5 -26.5t-87 -60.5t-30.5 -102zM362 1294l191 332l137 -78l-225 -305z" />
<glyph unicode="&#xe2;" horiz-adv-x="905" d="M84 266q0 174 135 248t373 80v209q0 106 -38 149t-112 43q-106 0 -270 -77l-37 133q209 80 332 79q160 0 228.5 -82.5t68.5 -240.5v-496q0 -119 18 -311h-143l-18 106q-2 -2 -27 -19l-32 -22q-7 -5 -31.5 -20.5t-36.5 -21.5l-36 -18q-24 -11 -41.5 -15t-40 -8.5 t-42.5 -4.5q-121 0 -185.5 82t-64.5 207zM182 1311l283 260l285 -248l-82 -82l-203 164l-199 -164zM246 287q0 -82 39 -131.5t106 -49.5q66 0 201 103v276q-68 -2 -120 -9t-108.5 -26.5t-87 -60.5t-30.5 -102z" />
<glyph unicode="&#xe3;" horiz-adv-x="905" d="M84 266q0 174 135 248t373 80v209q0 106 -38 149t-112 43q-106 0 -270 -77l-37 133q209 80 332 79q160 0 228.5 -82.5t68.5 -240.5v-496q0 -119 18 -311h-143l-18 106q-2 -2 -27 -19l-32 -22q-7 -5 -31.5 -20.5t-36.5 -21.5l-36 -18q-24 -11 -41.5 -15t-40 -8.5 t-42.5 -4.5q-121 0 -185.5 82t-64.5 207zM160 1362q100 106 196 106q55 0 113.5 -30.5t91.5 -30.5q53 0 125 63l68 -77q-86 -111 -193 -111q-59 0 -116.5 32t-90.5 32q-10 0 -19 -1.5t-19.5 -6.5t-16.5 -7t-19.5 -11t-16.5 -12t-19.5 -15.5t-20.5 -14.5zM246 287 q0 -82 39 -131.5t106 -49.5q66 0 201 103v276q-68 -2 -120 -9t-108.5 -26.5t-87 -60.5t-30.5 -102z" />
<glyph unicode="&#xe4;" horiz-adv-x="905" d="M84 266q0 174 135 248t373 80v209q0 106 -38 149t-112 43q-106 0 -270 -77l-37 133q209 80 332 79q160 0 228.5 -82.5t68.5 -240.5v-496q0 -119 18 -311h-143l-18 106q-2 -2 -27 -19l-32 -22q-7 -5 -31.5 -20.5t-36.5 -21.5l-36 -18q-24 -11 -41.5 -15t-40 -8.5 t-42.5 -4.5q-121 0 -185.5 82t-64.5 207zM154 1434q0 51 30.5 81.5t79.5 30.5q43 0 73 -31.5t30 -80.5q0 -47 -30 -78t-73 -31q-49 0 -79.5 30t-30.5 79zM246 287q0 -82 39 -131.5t106 -49.5q66 0 201 103v276q-68 -2 -120 -9t-108.5 -26.5t-87 -60.5t-30.5 -102z M553 1433.5q0 49.5 28.5 81t73.5 31.5q47 0 79 -31.5t32 -81t-30.5 -79t-80.5 -29.5q-43 0 -72.5 29.5t-29.5 79z" />
<glyph unicode="&#xe5;" horiz-adv-x="905" d="M84 266q0 174 135 248t373 80v209q0 106 -38 149t-112 43q-106 0 -270 -77l-37 133q209 80 332 79q160 0 228.5 -82.5t68.5 -240.5v-496q0 -119 18 -311h-143l-18 106q-2 -2 -27 -19l-32 -22q-7 -5 -31.5 -20.5t-36.5 -21.5l-36 -18q-24 -11 -41.5 -15t-40 -8.5 t-42.5 -4.5q-121 0 -185.5 82t-64.5 207zM244 1476.5q0 98.5 59 167t148 68.5q92 0 151.5 -68.5t59.5 -166.5q0 -96 -59.5 -165t-151.5 -69q-90 0 -148.5 67.5t-58.5 166zM246 287q0 -82 39 -131.5t106 -49.5q66 0 201 103v276q-68 -2 -120 -9t-108.5 -26.5t-87 -60.5 t-30.5 -102zM354 1477q0 -53 26 -90t71 -37t71.5 37.5t26.5 89.5q0 55 -26.5 93t-71.5 38t-71 -38t-26 -93z" />
<glyph unicode="&#xe6;" horiz-adv-x="1341" d="M68 287q0 180 133 270t364 96v127q0 215 -137 215q-104 0 -266 -77l-39 133q209 80 326 79q170 0 221 -188q119 193 262 193q166 0 248 -135.5t82 -352.5q0 -49 -7 -96h-540q12 -442 248 -442q109 0 235 96l43 -137q-139 -96 -303 -97q-174 0 -270 150 q-182 -143 -332 -144q-123 0 -195.5 86.5t-72.5 223.5zM227 307q0 -86 45 -143.5t115 -57.5q98 0 234 109q-51 131 -58 330q-158 -4 -247 -62.5t-89 -175.5zM707 666h393v20q0 319 -187 320q-90 0 -143 -98.5t-63 -241.5z" />
<glyph unicode="&#xe7;" horiz-adv-x="784" d="M86 549q0 283 113.5 429t328.5 146q123 0 226 -55l-43 -145q-96 61 -185 61q-260 0 -260 -418q0 -213 68.5 -329.5t191.5 -116.5q94 0 191 63l41 -137q-106 -61 -230 -67l-16 -121q190 -39 190 -197q0 -100 -70.5 -145t-174.5 -45q-70 0 -142 20l25 94q66 -18 106 -18 q131 0 132 102q0 53 -43 79t-134 32l25 205q-166 27 -253 172t-87 391z" />
<glyph unicode="&#xe8;" horiz-adv-x="923" d="M88 539q0 262 100.5 426.5t298.5 164.5q180 0 266.5 -131t86.5 -333q0 -53 -11 -115h-583q2 -209 71.5 -323.5t200.5 -114.5q117 0 256 94l43 -135q-156 -98 -313 -99q-119 0 -205 49.5t-129 134.5t-62.5 178t-19.5 204zM244 1540l155 84l193 -319l-115 -56zM250 666h426 q0 338 -195 338q-94 0 -154.5 -88t-76.5 -250z" />
<glyph unicode="&#xe9;" horiz-adv-x="923" d="M88 539q0 262 100.5 426.5t298.5 164.5q180 0 266.5 -131t86.5 -333q0 -53 -11 -115h-583q2 -209 71.5 -323.5t200.5 -114.5q117 0 256 94l43 -135q-156 -98 -313 -99q-119 0 -205 49.5t-129 134.5t-62.5 178t-19.5 204zM250 666h426q0 338 -195 338q-94 0 -154.5 -88 t-76.5 -250zM393 1294l191 332l137 -78l-225 -305z" />
<glyph unicode="&#xea;" horiz-adv-x="923" d="M88 539q0 262 100.5 426.5t298.5 164.5q180 0 266.5 -131t86.5 -333q0 -53 -11 -115h-583q2 -209 71.5 -323.5t200.5 -114.5q117 0 256 94l43 -135q-156 -98 -313 -99q-119 0 -205 49.5t-129 134.5t-62.5 178t-19.5 204zM205 1311l282 260l285 -248l-82 -82l-203 164 l-198 -164zM250 666h426q0 338 -195 338q-94 0 -154.5 -88t-76.5 -250z" />
<glyph unicode="&#xeb;" horiz-adv-x="923" d="M88 539q0 262 100.5 426.5t298.5 164.5q180 0 266.5 -131t86.5 -333q0 -53 -11 -115h-583q2 -209 71.5 -323.5t200.5 -114.5q117 0 256 94l43 -135q-156 -98 -313 -99q-119 0 -205 49.5t-129 134.5t-62.5 178t-19.5 204zM174 1434q0 51 31 81.5t80 30.5q43 0 72.5 -31.5 t29.5 -80.5q0 -47 -29.5 -78t-72.5 -31q-49 0 -80 30t-31 79zM250 666h426q0 338 -195 338q-94 0 -154.5 -88t-76.5 -250zM573 1433.5q0 49.5 29 81t74 31.5q47 0 78.5 -31.5t31.5 -81t-30.5 -79t-79.5 -29.5q-43 0 -73 29.5t-30 79z" />
<glyph unicode="&#xec;" horiz-adv-x="495" d="M74 1540l155 84l193 -319l-115 -56zM160 0v1104h176v-1104h-176z" />
<glyph unicode="&#xed;" horiz-adv-x="495" d="M82 1294l190 332l138 -78l-226 -305zM160 0v1104h176v-1104h-176z" />
<glyph unicode="&#xee;" horiz-adv-x="495" d="M-35 1311l283 260l284 -248l-81 -82l-203 164l-199 -164zM160 0v1104h176v-1104h-176z" />
<glyph unicode="&#xef;" horiz-adv-x="495" d="M-59 1434q0 51 30.5 81.5t79.5 30.5q43 0 73 -31.5t30 -80.5q0 -47 -30 -78t-73 -31q-49 0 -79.5 30t-30.5 79zM160 0v1104h176v-1104h-176zM340 1433.5q0 49.5 28.5 81t73.5 31.5q47 0 79 -31.5t32 -81t-30.5 -79t-80.5 -29.5q-43 0 -72.5 29.5t-29.5 79z" />
<glyph unicode="&#xf0;" horiz-adv-x="1056" d="M113 440q0 127 36.5 227.5t100 159t144.5 86.5q65 23 135 23q17 0 35 -1q89 -7 175 -46q-35 197 -114 336l-185 -166l-71 96l190 168q-106 131 -264 205l67 135q193 -82 320 -231l178 157l68 -92l-174 -158q186 -283 186 -708q0 -657 -416 -658q-188 0 -299.5 127 t-111.5 340zM299 463q0 -150 60.5 -246t170.5 -96q229 0 230 491q0 74 -6 148q-102 42 -191 42q-15 0 -29 -1q-101 -8 -168 -97t-67 -241z" />
<glyph unicode="&#xf1;" horiz-adv-x="1052" d="M152 0v1104h155l6 -131q201 158 349 157q248 0 247 -348v-782h-174v754q0 117 -32.5 170t-106.5 53q-115 0 -270 -146v-831h-174zM238 1362q100 106 196 106q55 0 113.5 -30.5t91.5 -30.5q53 0 125 63l67 -77q-86 -111 -192 -111q-59 0 -116.5 32t-90.5 32 q-10 0 -19.5 -1.5t-19.5 -6.5t-16 -7t-19.5 -11t-16.5 -12t-19.5 -15.5t-20.5 -14.5z" />
<glyph unicode="&#xf2;" horiz-adv-x="1011" d="M90 543q0 260 106.5 423.5t321.5 163.5q213 0 308.5 -157.5t95.5 -405.5q0 -266 -105.5 -430t-316.5 -164q-205 0 -307.5 158t-102.5 412zM268 549q0 -203 58.5 -318.5t177.5 -115.5q123 0 181 123.5t58 324.5q0 197 -56 312.5t-177 115.5t-181.5 -117.5t-60.5 -324.5z M270 1540l156 84l192 -319l-114 -56z" />
<glyph unicode="&#xf3;" horiz-adv-x="1011" d="M90 543q0 260 106.5 423.5t321.5 163.5q213 0 308.5 -157.5t95.5 -405.5q0 -266 -105.5 -430t-316.5 -164q-205 0 -307.5 158t-102.5 412zM268 549q0 -203 58.5 -318.5t177.5 -115.5q123 0 181 123.5t58 324.5q0 197 -56 312.5t-177 115.5t-181.5 -117.5t-60.5 -324.5z M420 1294l190 332l138 -78l-226 -305z" />
<glyph unicode="&#xf4;" horiz-adv-x="1011" d="M90 543q0 260 106.5 423.5t321.5 163.5q213 0 308.5 -157.5t95.5 -405.5q0 -266 -105.5 -430t-316.5 -164q-205 0 -307.5 158t-102.5 412zM231 1311l283 260l285 -248l-82 -82l-203 164l-199 -164zM268 549q0 -203 58.5 -318.5t177.5 -115.5q123 0 181 123.5t58 324.5 q0 197 -56 312.5t-177 115.5t-181.5 -117.5t-60.5 -324.5z" />
<glyph unicode="&#xf5;" horiz-adv-x="1011" d="M90 543q0 260 106.5 423.5t321.5 163.5q213 0 308.5 -157.5t95.5 -405.5q0 -266 -105.5 -430t-316.5 -164q-205 0 -307.5 158t-102.5 412zM205 1362q100 106 196 106q55 0 113.5 -30.5t91.5 -30.5q53 0 125 63l68 -77q-86 -111 -193 -111q-59 0 -116.5 32t-90.5 32 q-10 0 -19 -1.5t-19.5 -6.5t-16.5 -7t-19.5 -11t-16.5 -12t-19.5 -15.5t-20.5 -14.5zM268 549q0 -203 58.5 -318.5t177.5 -115.5q123 0 181 123.5t58 324.5q0 197 -56 312.5t-177 115.5t-181.5 -117.5t-60.5 -324.5z" />
<glyph unicode="&#xf6;" horiz-adv-x="1011" d="M90 543q0 260 106.5 423.5t321.5 163.5q213 0 308.5 -157.5t95.5 -405.5q0 -266 -105.5 -430t-316.5 -164q-205 0 -307.5 158t-102.5 412zM203 1434q0 51 30.5 81.5t79.5 30.5q43 0 73 -31.5t30 -80.5q0 -47 -30 -78t-73 -31q-49 0 -79.5 30t-30.5 79zM268 549 q0 -203 58.5 -318.5t177.5 -115.5q123 0 181 123.5t58 324.5q0 197 -56 312.5t-177 115.5t-181.5 -117.5t-60.5 -324.5zM602 1433.5q0 49.5 28.5 81t74.5 31.5q47 0 78.5 -31.5t31.5 -81t-30.5 -79t-79.5 -29.5q-43 0 -73 29.5t-30 79z" />
<glyph unicode="&#xf7;" horiz-adv-x="997" d="M102 492l754 335l49 -139l-751 -336zM326 1055q0 51 34.5 86t83.5 35q47 0 81 -35t34 -86t-33.5 -86t-81.5 -35q-51 0 -84.5 35t-33.5 86zM553 92q0 51 35 86t84 35q47 0 80.5 -35t33.5 -86t-33.5 -86t-80.5 -35q-51 0 -85 35t-34 86z" />
<glyph unicode="&#xf8;" horiz-adv-x="1003" d="M-35 117l156 155q-35 113 -35 271q0 260 106.5 423.5t321.5 163.5q188 0 291 -133l141 142l115 -121l-178 -180q35 -117 35 -271q0 -266 -105.5 -430t-316.5 -164q-193 0 -297 144l-123 -121zM264 549q0 -88 8 -148l420 451q-59 139 -186 139q-121 0 -181.5 -117.5 t-60.5 -324.5zM307 260q61 -145 193 -145q123 0 181 123.5t58 324.5q0 70 -10 146z" />
<glyph unicode="&#xf9;" horiz-adv-x="1056" d="M147 301v803h175v-768q0 -111 38.5 -160t114.5 -49q59 0 117.5 35t138.5 108v834h174v-1104h-155l-9 131q-70 -55 -110.5 -84t-98 -51.5t-116.5 -22.5q-269 0 -269 328zM289 1540l155 84l193 -319l-115 -56z" />
<glyph unicode="&#xfa;" horiz-adv-x="1056" d="M147 301v803h175v-768q0 -111 38.5 -160t114.5 -49q59 0 117.5 35t138.5 108v834h174v-1104h-155l-9 131q-70 -55 -110.5 -84t-98 -51.5t-116.5 -22.5q-269 0 -269 328zM438 1294l191 332l137 -78l-225 -305z" />
<glyph unicode="&#xfb;" horiz-adv-x="1056" d="M147 301v803h175v-768q0 -111 38.5 -160t114.5 -49q59 0 117.5 35t138.5 108v834h174v-1104h-155l-9 131q-70 -55 -110.5 -84t-98 -51.5t-116.5 -22.5q-269 0 -269 328zM250 1311l282 260l285 -248l-82 -82l-203 164l-198 -164z" />
<glyph unicode="&#xfc;" horiz-adv-x="1056" d="M147 301v803h175v-768q0 -111 38.5 -160t114.5 -49q59 0 117.5 35t138.5 108v834h174v-1104h-155l-9 131q-70 -55 -110.5 -84t-98 -51.5t-116.5 -22.5q-269 0 -269 328zM221 1434q0 51 31 81.5t80 30.5q43 0 72.5 -31.5t29.5 -80.5q0 -47 -29.5 -78t-72.5 -31 q-49 0 -80 30t-31 79zM621 1433.5q0 49.5 28.5 81t73.5 31.5q47 0 79 -31.5t32 -81t-31 -79t-80 -29.5q-43 0 -72.5 29.5t-29.5 79z" />
<glyph unicode="&#xfd;" horiz-adv-x="856" d="M-10 1104h188l275 -879l225 879h182l-350 -1198q-49 -143 -108.5 -232.5t-127 -137.5t-182.5 -97l-69 127q133 61 206.5 139t114.5 223l25 99zM344 1294l191 332l137 -78l-226 -305z" />
<glyph unicode="&#xfe;" horiz-adv-x="1019" d="M158 -557v2220h176v-598q102 70 188 70q197 0 300.5 -165t103.5 -407q0 -139 -41 -269t-141.5 -226.5t-239.5 -96.5q-72 0 -170 43v-571h-176zM334 174q80 -57 168 -57q66 0 115 44t74.5 114.5t36.5 139t11 136.5q0 188 -58 313t-183 125q-86 0 -164 -80v-735z" />
<glyph unicode="&#xff;" horiz-adv-x="856" d="M-10 1104h188l275 -879l225 879h182l-350 -1198q-49 -143 -108.5 -232.5t-127 -137.5t-182.5 -97l-69 127q133 61 206.5 139t114.5 223l25 99zM125 1434q0 51 30.5 81.5t80.5 30.5q43 0 72.5 -31.5t29.5 -80.5q0 -47 -29.5 -78t-72.5 -31q-49 0 -80 30t-31 79z M524 1433.5q0 49.5 29 81t74 31.5q47 0 78.5 -31.5t31.5 -81t-30.5 -79t-79.5 -29.5q-43 0 -73 29.5t-30 79z" />
<glyph unicode="&#x152;" horiz-adv-x="1722" d="M94 756q0 94 13.5 189t53.5 205t103.5 191.5t174 137t251.5 55.5q43 0 135.5 -10.5t149.5 -10.5h633v-145h-566v-491h488v-144h-488v-588h603v-145h-656q-37 0 -141.5 -10t-155.5 -10q-143 0 -254.5 58t-174 143t-102.5 196.5t-53.5 202t-13.5 176.5zM279 755.5 q0 -71.5 7 -142t32.5 -164t67.5 -161t121 -115.5t183 -48q57 0 180 20v1221q-74 20 -180 20q-98 0 -174 -46t-120 -114.5t-71.5 -158.5t-36.5 -165t-9 -146.5z" />
<glyph unicode="&#x153;" horiz-adv-x="1454" d="M82 557q0 66 9 133.5t36 150.5t68 145.5t115.5 105.5t168.5 43q201 0 285 -244q92 244 274 244q170 0 252 -138.5t84 -353.5q0 -37 -10 -98h-526q23 -436 231 -436q109 0 240 96l47 -135q-143 -98 -305 -99q-205 0 -287 252q-92 -252 -291 -252q-115 0 -197.5 59.5 t-121.5 156t-55.5 186.5t-16.5 184zM264 565q0 -70 7.5 -135t27.5 -142t66.5 -124t111.5 -47q197 0 197 438q0 434 -199 434q-66 0 -111 -44t-65 -116.5t-27.5 -134t-7.5 -129.5zM840 659h370v15q0 331 -180 332q-88 0 -134 -96.5t-56 -250.5z" />
<glyph unicode="&#x178;" horiz-adv-x="974" d="M-33 1513h199l326 -843l331 843h183l-431 -1017v-496h-174v492zM174 1767.5q0 49.5 33 82t82 32.5q47 0 77.5 -32.5t30.5 -82t-31.5 -80t-76.5 -30.5q-51 0 -83 30.5t-32 80zM584 1767q0 49 31.5 82t76.5 33q51 0 85 -32.5t34 -82t-34 -80t-85 -30.5q-43 0 -75.5 31.5 t-32.5 78.5z" />
<glyph unicode="&#x2c6;" horiz-adv-x="487" d="M-37 1311l283 260l284 -248l-81 -82l-203 164l-199 -164z" />
<glyph unicode="&#x2dc;" horiz-adv-x="647" d="M4 1362q100 106 197 106q55 0 113.5 -30.5t91.5 -30.5q53 0 124 63l68 -77q-86 -111 -192 -111q-59 0 -117 32t-90 32q-10 0 -19.5 -1.5t-19.5 -6.5t-16.5 -7t-19.5 -11t-16.5 -12t-19.5 -15.5t-20 -14.5z" />
<glyph unicode="&#x2013;" horiz-adv-x="1144" d="M104 596v145h930v-145h-930z" />
<glyph unicode="&#x2014;" horiz-adv-x="1730" d="M104 596v145h1516v-145h-1516z" />
<glyph unicode="&#x2018;" horiz-adv-x="358" d="M115 1380q0 184 174 375l106 -90q-100 -119 -100 -223q0 -39 26.5 -81t26.5 -83t-27.5 -68.5t-72.5 -27.5q-61 0 -97 55t-36 143z" />
<glyph unicode="&#x2019;" horiz-adv-x="358" d="M25 1225q100 119 100 223q0 39 -26.5 81t-26.5 83t27.5 68.5t72.5 27.5q61 0 97 -55.5t36 -143.5q0 -184 -174 -374z" />
<glyph unicode="&#x201a;" horiz-adv-x="428" d="M66 -246q100 119 100 223q0 39 -26.5 81t-26.5 83t27.5 69t72.5 28q61 0 97 -55.5t36 -143.5q0 -184 -174 -375z" />
<glyph unicode="&#x201c;" horiz-adv-x="712" d="M115 1380q0 184 174 375l106 -90q-100 -119 -100 -223q0 -39 26.5 -81t26.5 -83t-27.5 -68.5t-72.5 -27.5q-61 0 -97 55t-36 143zM504 1380q0 184 174 375l106 -90q-100 -119 -100 -223q0 -39 26.5 -81t26.5 -83t-27.5 -68.5t-72.5 -27.5q-61 0 -97 55t-36 143z" />
<glyph unicode="&#x201d;" horiz-adv-x="712" d="M25 1225q100 119 100 223q0 39 -26.5 81t-26.5 83t27.5 68.5t72.5 27.5q61 0 97 -55.5t36 -143.5q0 -184 -174 -374zM416 1225q100 119 100 223q0 39 -26.5 81t-26.5 83t27.5 68.5t72.5 27.5q61 0 97 -55.5t36 -143.5q0 -184 -174 -374z" />
<glyph unicode="&#x201e;" horiz-adv-x="782" d="M66 -244q100 119 100 224q0 39 -26.5 80.5t-26.5 82.5t27.5 69t72.5 28q61 0 97 -55.5t36 -143.5q0 -184 -174 -375zM457 -244q100 119 100 224q0 39 -26.5 80.5t-26.5 82.5t27.5 69t72.5 28q61 0 97 -55.5t36 -143.5q0 -184 -174 -375z" />
<glyph unicode="&#x2022;" horiz-adv-x="638" d="M33 702q0 127 82 216.5t198 89.5q119 0 203 -89.5t84 -216.5q0 -125 -84 -214t-203 -89q-117 0 -198.5 88t-81.5 215z" />
<glyph unicode="&#x2026;" horiz-adv-x="1216" d="M104 92q0 51 35 86t84 35q47 0 81 -35t34 -86t-34 -86t-81 -35q-51 0 -85 35t-34 86zM539 92q0 51 34.5 86t83.5 35q47 0 81 -35t34 -86t-33.5 -86t-81.5 -35q-51 0 -84.5 35t-33.5 86zM973 92q0 51 34.5 86t84.5 35q47 0 80.5 -35t33.5 -86t-33.5 -86t-80.5 -35 q-51 0 -85 35t-34 86z" />
<glyph unicode="&#x2039;" horiz-adv-x="651" d="M90 557l316 463l137 -55l-236 -408l236 -401l-137 -62z" />
<glyph unicode="&#x203a;" horiz-adv-x="653" d="M111 152l239 405l-239 404l135 59l317 -463l-319 -461z" />
<glyph unicode="&#x20ac;" horiz-adv-x="1036" d="M90 559v131h121v58q0 76 2 114h-123v135h137q39 248 160 395.5t336 147.5q123 0 250 -59l-47 -148q-100 59 -195 60q-260 0 -317 -396h391v-135h-404q-2 -33 -2 -102q0 -47 2 -70h404v-131h-395q25 -209 101.5 -325.5t209.5 -116.5q98 0 219 63l45 -143 q-154 -66 -278 -66q-217 0 -337 158t-149 430h-131z" />
<glyph unicode="&#x2122;" horiz-adv-x="1417" d="M-2 1550v113h571v-113h-219v-731h-131v731h-221zM569 821l49 842h130l213 -641l215 641h122l52 -842h-136l-26 615l-195 -615h-69l-199 613l-33 -613h-123z" />
<glyph unicode="&#xe000;" horiz-adv-x="1105" d="M0 1105h1105v-1105h-1105v1105z" />
<glyph unicode="&#xfb01;" horiz-adv-x="1048" d="M43 973v131h129v180q0 410 348 410q137 0 318 -84l-50 -129q-137 76 -256 75q-104 0 -145 -67.5t-41 -204.5v-180h551v-1104h-174v973h-377v-973h-174v973h-129z" />
<glyph unicode="&#xfb02;" horiz-adv-x="1054" d="M45 973v131h127v180q0 410 358 410q176 0 373 -88v-1606h-172v1522q-109 37 -201 37q-102 0 -143 -70t-41 -207v-178h240v-131h-240v-973h-174v973h-127z" />
<glyph unicode="&#xfb03;" horiz-adv-x="1613" d="M45 973v131h127v178q0 412 328 412q113 0 231 -45l-37 -131q-90 39 -176 38q-98 0 -135 -68.5t-37 -205.5v-178h240v-131h-240v-973h-174v973h-127zM604 973v131h127v178q0 412 328 412q113 0 231 -45l-37 -131q-90 39 -176 38q-98 0 -135 -68.5t-37 -205.5v-178h240 v-131h-240v-973h-174v973h-127zM1255 1460q0 51 32 85t79 34t80 -34t33 -85t-33 -84t-80 -33q-49 0 -80 33t-31 84zM1278 0v1104h176v-1104h-176z" />
<glyph unicode="&#xfb04;" horiz-adv-x="1595" d="M45 973v131h127v178q0 412 328 412q113 0 231 -45l-37 -131q-90 39 -176 38q-98 0 -135 -68.5t-37 -205.5v-178h240v-131h-240v-973h-174v973h-127zM604 973v131h127v178q0 412 328 412q113 0 231 -45l-37 -131q-90 39 -176 38q-98 0 -135 -68.5t-37 -205.5v-178h240 v-131h-240v-973h-174v973h-127zM1270 0v1663h176v-1663h-176z" />
</font>
</defs>
</svg>
